<?xml version="1.0" standalone="no"?><!-- Generator: Gravit.io --><svg xmlns="http://www.w3.org/2000/svg" xmlns:xlink="http://www.w3.org/1999/xlink" style="isolation:isolate" viewBox="0 0 204.094 51.024" width="204.094" height="51.024"><defs><clipPath id="_clipPath_KG1VkG7swmzdBUwhUSb5pud724Jfvu5H"><rect width="204.094" height="51.024"/></clipPath></defs><g clip-path="url(#_clipPath_KG1VkG7swmzdBUwhUSb5pud724Jfvu5H)"><g id="Group"><path d=" M 4.906 34.27 L 4.906 34.27 Q 4.486 34.27 4.171 33.955 L 4.171 33.955 L 4.171 33.955 Q 3.856 33.64 3.856 33.22 L 3.856 33.22 L 3.856 5.962 L 3.856 5.962 Q 3.856 5.5 4.15 5.185 L 4.15 5.185 L 4.15 5.185 Q 4.444 4.87 4.906 4.87 L 4.906 4.87 L 16.792 4.87 L 16.792 4.87 Q 22.252 4.87 25.36 7.348 L 25.36 7.348 L 25.36 7.348 Q 28.468 9.826 28.468 14.614 L 28.468 14.614 L 28.468 14.614 Q 28.468 19.402 25.36 21.775 L 25.36 21.775 L 25.36 21.775 Q 22.252 24.148 16.792 24.148 L 16.792 24.148 L 12.004 24.148 L 12.004 33.22 L 12.004 33.22 Q 12.004 33.64 11.71 33.955 L 11.71 33.955 L 11.71 33.955 Q 11.416 34.27 10.954 34.27 L 10.954 34.27 L 4.906 34.27 Z  M 11.878 18.142 L 16.582 18.142 L 16.582 18.142 Q 18.304 18.142 19.291 17.239 L 19.291 17.239 L 19.291 17.239 Q 20.278 16.336 20.278 14.572 L 20.278 14.572 L 20.278 14.572 Q 20.278 12.934 19.375 11.926 L 19.375 11.926 L 19.375 11.926 Q 18.472 10.918 16.582 10.918 L 16.582 10.918 L 11.878 10.918 L 11.878 18.142 Z  M 42.16 34.69 L 42.16 34.69 Q 37.036 34.69 34.096 31.939 L 34.096 31.939 L 34.096 31.939 Q 31.156 29.188 31.072 23.938 L 31.072 23.938 L 31.072 22.636 L 31.072 22.636 Q 31.24 17.638 34.18 14.824 L 34.18 14.824 L 34.18 14.824 Q 37.12 12.01 42.118 12.01 L 42.118 12.01 L 42.118 12.01 Q 45.73 12.01 48.229 13.459 L 48.229 13.459 L 48.229 13.459 Q 50.728 14.908 51.967 17.449 L 51.967 17.449 L 51.967 17.449 Q 53.206 19.99 53.206 23.224 L 53.206 23.224 L 53.206 24.274 L 53.206 24.274 Q 53.206 24.736 52.891 25.051 L 52.891 25.051 L 52.891 25.051 Q 52.576 25.366 52.114 25.366 L 52.114 25.366 L 38.8 25.366 L 38.8 25.618 L 38.8 25.618 Q 38.842 27.508 39.682 28.663 L 39.682 28.663 L 39.682 28.663 Q 40.522 29.818 42.076 29.818 L 42.076 29.818 L 42.076 29.818 Q 43.084 29.818 43.693 29.419 L 43.693 29.419 L 43.693 29.419 Q 44.302 29.02 44.848 28.39 L 44.848 28.39 L 44.848 28.39 Q 45.226 27.97 45.457 27.865 L 45.457 27.865 L 45.457 27.865 Q 45.688 27.76 46.192 27.76 L 46.192 27.76 L 51.694 27.76 L 51.694 27.76 Q 52.072 27.76 52.345 27.991 L 52.345 27.991 L 52.345 27.991 Q 52.618 28.222 52.618 28.558 L 52.618 28.558 L 52.618 28.558 Q 52.618 29.65 51.379 31.12 L 51.379 31.12 L 51.379 31.12 Q 50.14 32.59 47.767 33.64 L 47.767 33.64 L 47.767 33.64 Q 45.394 34.69 42.16 34.69 L 42.16 34.69 Z  M 38.8 21.082 L 45.478 21.082 L 45.478 20.998 L 45.478 20.998 Q 45.478 18.982 44.596 17.869 L 44.596 17.869 L 44.596 17.869 Q 43.714 16.756 42.118 16.756 L 42.118 16.756 L 42.118 16.756 Q 40.522 16.756 39.661 17.869 L 39.661 17.869 L 39.661 17.869 Q 38.8 18.982 38.8 20.998 L 38.8 20.998 L 38.8 21.082 Z  M 58.036 34.27 L 58.036 34.27 Q 57.616 34.27 57.301 33.955 L 57.301 33.955 L 57.301 33.955 Q 56.986 33.64 56.986 33.22 L 56.986 33.22 L 56.986 13.48 L 56.986 13.48 Q 56.986 13.018 57.301 12.724 L 57.301 12.724 L 57.301 12.724 Q 57.616 12.43 58.036 12.43 L 58.036 12.43 L 63.202 12.43 L 63.202 12.43 Q 63.664 12.43 63.958 12.724 L 63.958 12.724 L 63.958 12.724 Q 64.252 13.018 64.252 13.48 L 64.252 13.48 L 64.252 15.076 L 64.252 15.076 Q 65.386 13.69 67.171 12.85 L 67.171 12.85 L 67.171 12.85 Q 68.956 12.01 71.266 12.01 L 71.266 12.01 L 71.266 12.01 Q 73.66 12.01 75.529 13.102 L 75.529 13.102 L 75.529 13.102 Q 77.398 14.194 78.469 16.336 L 78.469 16.336 L 78.469 16.336 Q 79.54 18.478 79.54 21.502 L 79.54 21.502 L 79.54 33.22 L 79.54 33.22 Q 79.54 33.64 79.246 33.955 L 79.246 33.955 L 79.246 33.955 Q 78.952 34.27 78.49 34.27 L 78.49 34.27 L 72.904 34.27 L 72.904 34.27 Q 72.442 34.27 72.127 33.976 L 72.127 33.976 L 72.127 33.976 Q 71.812 33.682 71.812 33.22 L 71.812 33.22 L 71.812 21.754 L 71.812 21.754 Q 71.812 19.864 70.909 18.856 L 70.909 18.856 L 70.909 18.856 Q 70.006 17.848 68.284 17.848 L 68.284 17.848 L 68.284 17.848 Q 66.604 17.848 65.638 18.877 L 65.638 18.877 L 65.638 18.877 Q 64.672 19.906 64.672 21.754 L 64.672 21.754 L 64.672 33.22 L 64.672 33.22 Q 64.672 33.64 64.378 33.955 L 64.378 33.955 L 64.378 33.955 Q 64.084 34.27 63.622 34.27 L 63.622 34.27 L 58.036 34.27 Z  M 95.038 43.51 L 95.038 43.51 Q 91.006 43.51 88.486 42.208 L 88.486 42.208 L 88.486 42.208 Q 85.966 40.906 84.874 39.205 L 84.874 39.205 L 84.874 39.205 Q 83.782 37.504 83.782 36.37 L 83.782 36.37 L 83.782 36.37 Q 83.782 35.95 84.118 35.656 L 84.118 35.656 L 84.118 35.656 Q 84.454 35.362 84.874 35.362 L 84.874 35.362 L 90.502 35.362 L 90.502 35.362 Q 90.922 35.362 91.174 35.551 L 91.174 35.551 L 91.174 35.551 Q 91.426 35.74 91.636 36.202 L 91.636 36.202 L 91.636 36.202 Q 92.056 37.126 92.728 37.651 L 92.728 37.651 L 92.728 37.651 Q 93.4 38.176 94.828 38.176 L 94.828 38.176 L 94.828 38.176 Q 96.634 38.176 97.516 37.273 L 97.516 37.273 L 97.516 37.273 Q 98.398 36.37 98.398 34.27 L 98.398 34.27 L 98.398 31.456 L 98.398 31.456 Q 96.172 33.766 92.308 33.766 L 92.308 33.766 L 92.308 33.766 Q 88.066 33.766 85.819 31.309 L 85.819 31.309 L 85.819 31.309 Q 83.572 28.852 83.362 24.064 L 83.362 24.064 L 83.32 22.93 L 83.32 22.93 Q 83.32 17.806 85.609 14.908 L 85.609 14.908 L 85.609 14.908 Q 87.898 12.01 92.308 12.01 L 92.308 12.01 L 92.308 12.01 Q 94.45 12.01 96.088 12.829 L 96.088 12.829 L 96.088 12.829 Q 97.726 13.648 98.818 15.034 L 98.818 15.034 L 98.818 13.522 L 98.818 13.522 Q 98.818 13.06 99.112 12.745 L 99.112 12.745 L 99.112 12.745 Q 99.406 12.43 99.868 12.43 L 99.868 12.43 L 104.992 12.43 L 104.992 12.43 Q 105.454 12.43 105.769 12.745 L 105.769 12.745 L 105.769 12.745 Q 106.084 13.06 106.084 13.522 L 106.084 13.522 L 106.084 33.64 L 106.084 33.64 Q 106.084 38.47 103.186 40.99 L 103.186 40.99 L 103.186 40.99 Q 100.288 43.51 95.038 43.51 L 95.038 43.51 Z  M 94.702 28.096 L 94.702 28.096 Q 96.508 28.096 97.39 27.004 L 97.39 27.004 L 97.39 27.004 Q 98.272 25.912 98.398 24.232 L 98.398 24.232 L 98.398 24.232 Q 98.44 23.938 98.44 22.972 L 98.44 22.972 L 98.44 22.972 Q 98.44 21.964 98.398 21.712 L 98.398 21.712 L 98.398 21.712 Q 98.272 19.99 97.39 18.919 L 97.39 18.919 L 97.39 18.919 Q 96.508 17.848 94.702 17.848 L 94.702 17.848 L 94.702 17.848 Q 92.854 17.848 92.014 18.961 L 92.014 18.961 L 92.014 18.961 Q 91.174 20.074 91.09 22.048 L 91.09 22.048 L 91.048 22.972 L 91.048 22.972 Q 91.048 25.366 91.846 26.731 L 91.846 26.731 L 91.846 26.731 Q 92.644 28.096 94.702 28.096 L 94.702 28.096 Z  M 118.936 34.69 L 118.936 34.69 Q 115.24 34.69 112.972 32.212 L 112.972 32.212 L 112.972 32.212 Q 110.704 29.734 110.704 25.198 L 110.704 25.198 L 110.704 13.48 L 110.704 13.48 Q 110.704 13.018 111.019 12.724 L 111.019 12.724 L 111.019 12.724 Q 111.334 12.43 111.754 12.43 L 111.754 12.43 L 117.34 12.43 L 117.34 12.43 Q 117.802 12.43 118.117 12.724 L 118.117 12.724 L 118.117 12.724 Q 118.432 13.018 118.432 13.48 L 118.432 13.48 L 118.432 24.946 L 118.432 24.946 Q 118.432 28.852 121.918 28.852 L 121.918 28.852 L 121.918 28.852 Q 123.598 28.852 124.543 27.823 L 124.543 27.823 L 124.543 27.823 Q 125.488 26.794 125.488 24.946 L 125.488 24.946 L 125.488 13.48 L 125.488 13.48 Q 125.488 13.018 125.803 12.724 L 125.803 12.724 L 125.803 12.724 Q 126.118 12.43 126.58 12.43 L 126.58 12.43 L 132.124 12.43 L 132.124 12.43 Q 132.586 12.43 132.88 12.724 L 132.88 12.724 L 132.88 12.724 Q 133.174 13.018 133.174 13.48 L 133.174 13.48 L 133.174 33.22 L 133.174 33.22 Q 133.174 33.64 132.88 33.955 L 132.88 33.955 L 132.88 33.955 Q 132.586 34.27 132.124 34.27 L 132.124 34.27 L 127 34.27 L 127 34.27 Q 126.538 34.27 126.223 33.976 L 126.223 33.976 L 126.223 33.976 Q 125.908 33.682 125.908 33.22 L 125.908 33.22 L 125.908 31.624 L 125.908 31.624 Q 123.724 34.69 118.936 34.69 L 118.936 34.69 Z  M 139.012 9.406 L 139.012 9.406 Q 138.55 9.406 138.256 9.091 L 138.256 9.091 L 138.256 9.091 Q 137.962 8.776 137.962 8.314 L 137.962 8.314 L 137.962 4.408 L 137.962 4.408 Q 137.962 3.946 138.277 3.631 L 138.277 3.631 L 138.277 3.631 Q 138.592 3.316 139.012 3.316 L 139.012 3.316 L 144.262 3.316 L 144.262 3.316 Q 144.724 3.316 145.039 3.631 L 145.039 3.631 L 145.039 3.631 Q 145.354 3.946 145.354 4.408 L 145.354 4.408 L 145.354 8.314 L 145.354 8.314 Q 145.354 8.776 145.039 9.091 L 145.039 9.091 L 145.039 9.091 Q 144.724 9.406 144.262 9.406 L 144.262 9.406 L 139.012 9.406 Z  M 139.012 34.27 L 139.012 34.27 Q 138.592 34.27 138.277 33.955 L 138.277 33.955 L 138.277 33.955 Q 137.962 33.64 137.962 33.22 L 137.962 33.22 L 137.962 13.48 L 137.962 13.48 Q 137.962 13.018 138.277 12.724 L 138.277 12.724 L 138.277 12.724 Q 138.592 12.43 139.012 12.43 L 139.012 12.43 L 144.262 12.43 L 144.262 12.43 Q 144.724 12.43 145.039 12.724 L 145.039 12.724 L 145.039 12.724 Q 145.354 13.018 145.354 13.48 L 145.354 13.48 L 145.354 33.22 L 145.354 33.22 Q 145.354 33.682 145.039 33.976 L 145.039 33.976 L 145.039 33.976 Q 144.724 34.27 144.262 34.27 L 144.262 34.27 L 139.012 34.27 Z  M 151.192 34.27 L 151.192 34.27 Q 150.772 34.27 150.457 33.955 L 150.457 33.955 L 150.457 33.955 Q 150.142 33.64 150.142 33.22 L 150.142 33.22 L 150.142 13.48 L 150.142 13.48 Q 150.142 13.018 150.457 12.724 L 150.457 12.724 L 150.457 12.724 Q 150.772 12.43 151.192 12.43 L 151.192 12.43 L 156.358 12.43 L 156.358 12.43 Q 156.82 12.43 157.114 12.724 L 157.114 12.724 L 157.114 12.724 Q 157.408 13.018 157.408 13.48 L 157.408 13.48 L 157.408 15.076 L 157.408 15.076 Q 158.542 13.69 160.327 12.85 L 160.327 12.85 L 160.327 12.85 Q 162.112 12.01 164.422 12.01 L 164.422 12.01 L 164.422 12.01 Q 166.816 12.01 168.685 13.102 L 168.685 13.102 L 168.685 13.102 Q 170.554 14.194 171.625 16.336 L 171.625 16.336 L 171.625 16.336 Q 172.696 18.478 172.696 21.502 L 172.696 21.502 L 172.696 33.22 L 172.696 33.22 Q 172.696 33.64 172.402 33.955 L 172.402 33.955 L 172.402 33.955 Q 172.108 34.27 171.646 34.27 L 171.646 34.27 L 166.06 34.27 L 166.06 34.27 Q 165.598 34.27 165.283 33.976 L 165.283 33.976 L 165.283 33.976 Q 164.968 33.682 164.968 33.22 L 164.968 33.22 L 164.968 21.754 L 164.968 21.754 Q 164.968 19.864 164.065 18.856 L 164.065 18.856 L 164.065 18.856 Q 163.162 17.848 161.44 17.848 L 161.44 17.848 L 161.44 17.848 Q 159.76 17.848 158.794 18.877 L 158.794 18.877 L 158.794 18.877 Q 157.828 19.906 157.828 21.754 L 157.828 21.754 L 157.828 33.22 L 157.828 33.22 Q 157.828 33.64 157.534 33.955 L 157.534 33.955 L 157.534 33.955 Q 157.24 34.27 156.778 34.27 L 156.778 34.27 L 151.192 34.27 Z " fill-rule="evenodd" fill="rgb(255,255,255)"/><path d=" M 176.888 34.635 L 176.888 34.635 Q 176.657 34.635 176.5 34.488 L 176.5 34.488 L 176.5 34.488 Q 176.342 34.341 176.342 34.11 L 176.342 34.11 L 176.342 31.338 L 176.342 31.338 Q 176.342 31.107 176.5 30.95 L 176.5 30.95 L 176.5 30.95 Q 176.657 30.792 176.888 30.792 L 176.888 30.792 L 179.66 30.792 L 179.66 30.792 Q 179.891 30.792 180.038 30.95 L 180.038 30.95 L 180.038 30.95 Q 180.185 31.107 180.185 31.338 L 180.185 31.338 L 180.185 34.11 L 180.185 34.11 Q 180.185 34.32 180.038 34.478 L 180.038 34.478 L 180.038 34.478 Q 179.891 34.635 179.66 34.635 L 179.66 34.635 L 176.888 34.635 Z  M 182.999 22.203 L 182.999 22.203 Q 182.768 22.203 182.621 22.046 L 182.621 22.046 L 182.621 22.046 Q 182.474 21.888 182.474 21.657 L 182.474 21.657 L 182.474 19.704 L 182.474 19.704 Q 182.474 19.473 182.632 19.316 L 182.632 19.316 L 182.632 19.316 Q 182.789 19.158 182.999 19.158 L 182.999 19.158 L 185.624 19.158 L 185.624 19.158 Q 185.855 19.158 186.013 19.316 L 186.013 19.316 L 186.013 19.316 Q 186.17 19.473 186.17 19.704 L 186.17 19.704 L 186.17 21.657 L 186.17 21.657 Q 186.17 21.888 186.013 22.046 L 186.013 22.046 L 186.013 22.046 Q 185.855 22.203 185.624 22.203 L 185.624 22.203 L 182.999 22.203 Z  M 182.999 34.635 L 182.999 34.635 Q 182.789 34.635 182.632 34.478 L 182.632 34.478 L 182.632 34.478 Q 182.474 34.32 182.474 34.11 L 182.474 34.11 L 182.474 24.24 L 182.474 24.24 Q 182.474 24.009 182.632 23.862 L 182.632 23.862 L 182.632 23.862 Q 182.789 23.715 182.999 23.715 L 182.999 23.715 L 185.624 23.715 L 185.624 23.715 Q 185.855 23.715 186.013 23.862 L 186.013 23.862 L 186.013 23.862 Q 186.17 24.009 186.17 24.24 L 186.17 24.24 L 186.17 34.11 L 186.17 34.11 Q 186.17 34.341 186.013 34.488 L 186.013 34.488 L 186.013 34.488 Q 185.855 34.635 185.624 34.635 L 185.624 34.635 L 182.999 34.635 Z  M 193.814 34.845 L 193.814 34.845 Q 191.168 34.845 189.751 33.617 L 189.751 33.617 L 189.751 33.617 Q 188.333 32.388 188.207 30.12 L 188.207 30.12 L 188.207 30.12 Q 188.186 29.847 188.186 29.175 L 188.186 29.175 L 188.186 29.175 Q 188.186 28.503 188.207 28.23 L 188.207 28.23 L 188.207 28.23 Q 188.333 26.004 189.793 24.755 L 189.793 24.755 L 189.793 24.755 Q 191.252 23.505 193.814 23.505 L 193.814 23.505 L 193.814 23.505 Q 196.376 23.505 197.836 24.755 L 197.836 24.755 L 197.836 24.755 Q 199.295 26.004 199.421 28.23 L 199.421 28.23 L 199.421 28.23 Q 199.463 28.776 199.463 29.175 L 199.463 29.175 L 199.463 29.175 Q 199.463 29.574 199.421 30.12 L 199.421 30.12 L 199.421 30.12 Q 199.295 32.388 197.878 33.617 L 197.878 33.617 L 197.878 33.617 Q 196.46 34.845 193.814 34.845 L 193.814 34.845 Z  M 193.814 32.199 L 193.814 32.199 Q 194.675 32.199 195.095 31.664 L 195.095 31.664 L 195.095 31.664 Q 195.515 31.128 195.578 30.015 L 195.578 30.015 L 195.578 30.015 Q 195.599 29.805 195.599 29.175 L 195.599 29.175 L 195.599 29.175 Q 195.599 28.545 195.578 28.335 L 195.578 28.335 L 195.578 28.335 Q 195.515 27.243 195.095 26.697 L 195.095 26.697 L 195.095 26.697 Q 194.675 26.151 193.814 26.151 L 193.814 26.151 L 193.814 26.151 Q 192.953 26.151 192.533 26.697 L 192.533 26.697 L 192.533 26.697 Q 192.113 27.243 192.05 28.335 L 192.05 28.335 L 192.029 29.175 L 192.05 30.015 L 192.05 30.015 Q 192.113 31.128 192.533 31.664 L 192.533 31.664 L 192.533 31.664 Q 192.953 32.199 193.814 32.199 L 193.814 32.199 Z " fill-rule="evenodd" fill="rgb(209,125,0)"/><line x1="5" y1="39.75" x2="79" y2="39.75" vector-effect="non-scaling-stroke" stroke-width="3" stroke="rgb(209,125,0)" stroke-linejoin="miter" stroke-linecap="square" stroke-miterlimit="3"/><line x1="112.25" y1="39.75" x2="173.25" y2="39.75" vector-effect="non-scaling-stroke" stroke-width="3" stroke="rgb(209,125,0)" stroke-linejoin="miter" stroke-linecap="square" stroke-miterlimit="3"/></g></g></svg>